<svg xmlns="http://www.w3.org/2000/svg" version="1.1" xmlns:xlink="http://www.w3.org/1999/xlink" xmlns:svgjs="http://svgjs.com/svgjs" width="285" height="297" preserveAspectRatio="none" viewBox="0 0 285 297"><g mask="url(&quot;#SvgjsMask1064&quot;)" fill="none"><rect width="285" height="297" x="0" y="0" fill="rgba(241, 221, 191, 1)"></rect><path d="M0,123.463C27.019,125.122,56.852,138.535,79.564,123.805C102.277,109.074,106.536,77.588,111.708,51.015C116.033,28.793,106.689,7.306,106.645,-15.333C106.591,-43.012,126.276,-73.192,111.422,-96.547C96.82,-119.505,63.825,-122.379,36.764,-125.207C12.789,-127.712,-10.21,-120.102,-32.773,-111.616C-53.862,-103.684,-77.051,-96.358,-89.631,-77.666C-101.811,-59.568,-94.748,-35.656,-98.372,-14.144C-102.115,8.076,-115.551,28.694,-111.275,50.817C-106.5,75.519,-94.59,100.651,-73.523,114.405C-52.418,128.183,-25.157,121.918,0,123.463" fill="#e9c898"></path><path d="M285 436.753C310.282 431.887 327.682 410.156 346.279 392.351 361.688 377.598 374.431 361.28499999999997 383.828 342.133 393.459 322.505 403.427 302.039 401.26800000000003 280.283 399.06600000000003 258.099 388.53 236.541 371.877 221.721 356.068 207.652 333.803 205.488 312.979 201.713 294.16 198.301 275.891 200.45499999999998 256.769 200.85399999999998 230.04 201.411 197.33100000000002 185.76999999999998 178.274 204.52100000000002 159.663 222.833 176.05700000000002 255.107 175.111 281.2 174.286 303.962 168.031 325.904 173.06900000000002 348.117 178.982 374.19 185.465 402.67 206.424 419.267 227.895 436.27 258.106 441.929 285 436.753" fill="#faf2e6"></path></g><defs><mask id="SvgjsMask1064"><rect width="285" height="297" fill="#ffffff"></rect></mask></defs></svg>